<svg xmlns="http://www.w3.org/2000/svg" viewBox="0 0 2224 560" width="2224" height="560">
  <defs>
      <linearGradient id="word" x1="0" y1="0" x2="0" y2="1">
        <stop offset="0" stop-color="#FFB667"/><stop offset="1" stop-color="#F26E17"/>
      </linearGradient>
      <linearGradient id="lbg" x1="0" y1="0" x2="0" y2="1">
        <stop offset="0" stop-color="#12151C"/><stop offset="1" stop-color="#070809"/>
      </linearGradient>
      <radialGradient id="lglow" cx="0.16" cy="0.5" r="0.5">
        <stop offset="0" stop-color="#FF7A1A" stop-opacity="0.16"/>
        <stop offset="1" stop-color="#FF7A1A" stop-opacity="0"/>
      </radialGradient>
    </defs>
  
  <g transform="translate(30,45.0) scale(0.458984375)">
  <defs>
    <linearGradient id="bgm" x1="0" y1="0" x2="0" y2="1">
      <stop offset="0" stop-color="#141821"/>
      <stop offset="0.55" stop-color="#0C0E14"/>
      <stop offset="1" stop-color="#070809"/>
    </linearGradient>
    <radialGradient id="glowm" cx="0.5" cy="0.48" r="0.55">
      <stop offset="0" stop-color="#FF7A1A" stop-opacity="0.34"/>
      <stop offset="0.45" stop-color="#FF7A1A" stop-opacity="0.10"/>
      <stop offset="1" stop-color="#FF7A1A" stop-opacity="0"/>
    </radialGradient>
    <radialGradient id="vigm" cx="0.5" cy="0.5" r="0.72">
      <stop offset="0.6" stop-color="#000" stop-opacity="0"/>
      <stop offset="1" stop-color="#000" stop-opacity="0.45"/>
    </radialGradient>
    <linearGradient id="ringm" x1="0" y1="0" x2="1" y2="0">
      <stop offset="0" stop-color="#17A2C4"/>
      <stop offset="0.5" stop-color="#3FDDEF"/>
      <stop offset="1" stop-color="#17A2C4"/>
    </linearGradient>
    <radialGradient id="corem" cx="0.5" cy="0.5" r="0.5">
      <stop offset="0" stop-color="#FFF6E8" stop-opacity="0.95"/>
      <stop offset="0.5" stop-color="#FFD9A0" stop-opacity="0.35"/>
      <stop offset="1" stop-color="#FFD9A0" stop-opacity="0"/>
    </radialGradient>
  </defs><g transform="translate(512,556) rotate(-20)" stroke-linecap="round"><path d="M -372,0 A 372,116 0 0 0 372,0" fill="none" stroke="url(#ringm)" stroke-width="8" opacity="0.5"/></g><g><polygon points="512.00,512.00 512.00,160.00 538.79,447.33" fill="#FFA95A"/><polygon points="512.00,512.00 538.79,447.33 619.48,404.52" fill="#FB8A31"/><polygon points="512.00,512.00 619.48,404.52 576.67,485.21" fill="#F5731B"/><polygon points="512.00,512.00 576.67,485.21 798.00,512.00" fill="#B94C13"/><polygon points="512.00,512.00 798.00,512.00 576.67,538.79" fill="#B94C13"/><polygon points="512.00,512.00 576.67,538.79 619.48,619.48" fill="#973D0F"/><polygon points="512.00,512.00 619.48,619.48 538.79,576.67" fill="#973D0F"/><polygon points="512.00,512.00 538.79,576.67 512.00,864.00" fill="#B94C13"/><polygon points="512.00,512.00 512.00,864.00 485.21,576.67" fill="#B94C13"/><polygon points="512.00,512.00 485.21,576.67 404.52,619.48" fill="#DA5F17"/><polygon points="512.00,512.00 404.52,619.48 447.33,538.79" fill="#F5731B"/><polygon points="512.00,512.00 447.33,538.79 226.00,512.00" fill="#FFA95A"/><polygon points="512.00,512.00 226.00,512.00 447.33,485.21" fill="#FFA95A"/><polygon points="512.00,512.00 447.33,485.21 404.52,404.52" fill="#FFC983"/><polygon points="512.00,512.00 404.52,404.52 485.21,447.33" fill="#FFC983"/><polygon points="512.00,512.00 485.21,447.33 512.00,160.00" fill="#FFA95A"/><line x1="512.0" y1="512.0" x2="512.00" y2="160.00" stroke="#FFE3B8" stroke-width="1.6" opacity="0.32"/><line x1="512.0" y1="512.0" x2="619.48" y2="404.52" stroke="#FFE3B8" stroke-width="1.6" opacity="0.32"/><line x1="512.0" y1="512.0" x2="798.00" y2="512.00" stroke="#FFE3B8" stroke-width="1.6" opacity="0.32"/><line x1="512.0" y1="512.0" x2="619.48" y2="619.48" stroke="#FFE3B8" stroke-width="1.6" opacity="0.32"/><line x1="512.0" y1="512.0" x2="512.00" y2="864.00" stroke="#FFE3B8" stroke-width="1.6" opacity="0.32"/><line x1="512.0" y1="512.0" x2="404.52" y2="619.48" stroke="#FFE3B8" stroke-width="1.6" opacity="0.32"/><line x1="512.0" y1="512.0" x2="226.00" y2="512.00" stroke="#FFE3B8" stroke-width="1.6" opacity="0.32"/><line x1="512.0" y1="512.0" x2="404.52" y2="404.52" stroke="#FFE3B8" stroke-width="1.6" opacity="0.32"/><polygon points="512.00,160.00 538.79,447.33 619.48,404.52 576.67,485.21 798.00,512.00 576.67,538.79 619.48,619.48 538.79,576.67 512.00,864.00 485.21,576.67 404.52,619.48 447.33,538.79 226.00,512.00 447.33,485.21 404.52,404.52 485.21,447.33" fill="none" stroke="#FFCF93" stroke-width="2.4" opacity="0.55" stroke-linejoin="round"/><circle cx="480" cy="484" r="58" fill="url(#corem)"/><polygon points="508.00,470.00 477.54,473.54 474.00,504.00 470.46,473.54 440.00,470.00 470.46,466.46 474.00,436.00 477.54,466.46" fill="#FFFDF7" opacity="0.92"/><circle cx="474" cy="470" r="4" fill="#FFFFFF"/></g><g transform="translate(512,556) rotate(-20)" stroke-linecap="round"><path d="M -372,0 A 372,116 0 0 1 372,0" fill="none" stroke="url(#ringm)" stroke-width="11" opacity="0.95"/><polygon points="293.1,56.4 308.1,71.4 293.1,86.4 278.1,71.4" fill="#7FEEF8"/><polygon points="293.1,56.4 308.1,71.4 293.1,86.4 278.1,71.4" fill="none" stroke="#3FDDEF" stroke-width="2" opacity="0.6"/><polygon points="-293.1,56.4 -278.1,71.4 -293.1,86.4 -308.1,71.4" fill="#7FEEF8"/><polygon points="-293.1,56.4 -278.1,71.4 -293.1,86.4 -308.1,71.4" fill="none" stroke="#3FDDEF" stroke-width="2" opacity="0.6"/></g></g>
  <g transform="translate(540,162.5) scale(1.2537094461671836)"><path d="M14.54,187.44 L14.54,0.49 L170.54,0.49 Q179.16,0.49 186.31,4.79 Q193.46,9.10 197.60,16.13 Q201.74,23.12 201.74,31.69 L201.74,86.57 Q201.74,95.14 197.60,102.17 Q193.46,109.20 186.31,113.51 Q179.16,117.77 170.54,117.77 L35.63,117.77 L35.63,187.44 L14.54,187.44 Z M45.74,96.44 L170.54,96.44 Q174.73,96.44 177.69,93.60 Q180.70,90.72 180.70,86.57 L180.70,31.69 Q180.70,27.54 177.69,24.58 Q174.73,21.57 170.54,21.57 L45.74,21.57 Q41.60,21.57 38.59,24.58 Q35.63,27.54 35.63,31.69 L35.63,86.57 Q35.63,90.72 38.59,93.60 Q41.60,96.44 45.74,96.44 Z M250.92,187.44 Q242.30,187.44 235.15,183.30 Q228.00,179.12 223.86,171.97 Q219.72,164.82 219.72,156.24 L219.72,31.44 Q219.72,22.87 223.86,15.72 Q228.00,8.57 235.15,4.43 Q242.30,0.24 250.92,0.24 L375.72,0.24 Q384.29,0.24 391.44,4.43 Q398.59,8.57 402.73,15.72 Q406.92,22.87 406.92,31.44 L406.92,156.24 Q406.92,164.82 402.73,171.97 Q398.59,179.12 391.44,183.30 Q384.29,187.44 375.72,187.44 L250.92,187.44 Z M250.92,166.40 L375.72,166.40 Q379.86,166.40 382.83,163.39 Q385.83,160.39 385.83,156.24 L385.83,31.44 Q385.83,27.30 382.83,24.29 Q379.86,21.29 375.72,21.29 L250.92,21.29 Q246.73,21.29 243.73,24.29 Q240.76,27.30 240.76,31.44 L240.76,156.24 Q240.76,160.39 243.73,163.39 Q246.73,166.40 250.92,166.40 Z M435.77,187.44 L435.77,0.00 L456.81,0.00 L456.81,166.40 L622.97,166.40 L622.97,187.44 L435.77,187.44 Z M638.55,187.44 L638.55,31.44 Q638.55,22.87 642.70,15.72 Q646.88,8.57 654.03,4.43 Q661.18,0.24 669.75,0.24 L794.55,0.24 Q803.12,0.24 810.27,4.43 Q817.42,8.57 821.57,15.72 Q825.75,22.87 825.75,31.44 L825.75,187.44 L804.71,187.44 L804.71,119.07 L659.64,119.07 L659.64,187.44 L638.55,187.44 L638.55,187.44 Z M659.64,97.99 L804.71,97.99 L804.71,31.44 Q804.71,27.30 801.70,24.29 Q798.74,21.29 794.55,21.29 L669.75,21.29 Q665.61,21.29 662.60,24.29 Q659.64,27.30 659.64,31.44 L659.64,97.99 L659.64,97.99 Z M1013.50,187.44 L952.40,114.64 L979.94,114.64 L1041.28,187.20 L1041.28,187.44 L1013.50,187.44 Z M855.38,187.44 L855.38,0.49 L1011.38,0.49 Q1020.00,0.49 1027.15,4.79 Q1034.30,9.10 1038.44,16.13 Q1042.58,23.12 1042.58,31.69 L1042.58,86.57 Q1042.58,95.14 1038.44,102.17 Q1034.30,109.20 1027.15,113.51 Q1020.00,117.77 1011.38,117.77 L876.47,117.77 L876.47,187.44 L855.38,187.44 Z M886.58,96.44 L1011.38,96.44 Q1015.57,96.44 1018.53,93.60 Q1021.54,90.72 1021.54,86.57 L1021.54,31.69 Q1021.54,27.54 1018.53,24.58 Q1015.57,21.57 1011.38,21.57 L886.58,21.57 Q882.44,21.57 879.43,24.58 Q876.47,27.54 876.47,31.69 L876.47,86.57 Q876.47,90.72 879.43,93.60 Q882.44,96.44 886.58,96.44 Z M1072.48,187.44 L1072.48,0.24 L1093.81,0.24 L1093.81,187.44 L1072.48,187.44 Z M1155.42,187.44 Q1146.85,187.44 1139.70,183.30 Q1132.55,179.12 1128.37,171.97 Q1124.22,164.82 1124.22,156.24 L1124.22,148.97 L1145.31,148.97 L1145.31,156.24 Q1145.31,160.39 1148.27,163.39 Q1151.28,166.40 1155.42,166.40 L1280.22,166.40 Q1284.41,166.40 1287.37,163.39 Q1290.38,160.39 1290.38,156.24 L1290.38,114.40 Q1290.38,110.22 1287.37,107.37 Q1284.41,104.49 1280.22,104.49 L1155.42,104.49 Q1146.85,104.49 1139.70,100.22 Q1132.55,95.92 1128.37,88.93 Q1124.22,81.90 1124.22,73.29 L1124.22,31.44 Q1124.22,22.87 1128.37,15.72 Q1132.55,8.57 1139.70,4.43 Q1146.85,0.24 1155.42,0.24 L1280.22,0.24 Q1288.84,0.24 1295.99,4.43 Q1303.14,8.57 1307.28,15.72 Q1311.42,22.87 1311.42,31.44 L1311.42,38.72 L1290.38,38.72 L1290.38,31.44 Q1290.38,27.30 1287.37,24.29 Q1284.41,21.29 1280.22,21.29 L1155.42,21.29 Q1151.28,21.29 1148.27,24.29 Q1145.31,27.30 1145.31,31.44 L1145.31,73.29 Q1145.31,77.47 1148.27,80.36 Q1151.28,83.20 1155.42,83.20 L1280.22,83.20 Q1288.84,83.20 1295.99,87.51 Q1303.14,91.77 1307.28,98.80 Q1311.42,105.79 1311.42,114.40 L1311.42,156.24 Q1311.42,164.82 1307.28,171.97 Q1303.14,179.12 1295.99,183.30 Q1288.84,187.44 1280.22,187.44 L1155.42,187.44 Z" fill="url(#word)"/></g>
  
</svg>